<svg width="50" height="50" viewBox="0 0 50 50" fill="none" xmlns="http://www.w3.org/2000/svg">
<path d="M35.4167 44.2707H14.5833C6.97917 44.2707 2.60417 39.8957 2.60417 32.2915V17.7082C2.60417 10.104 6.97917 5.729 14.5833 5.729H35.4167C43.0208 5.729 47.3958 10.104 47.3958 17.7082V32.2915C47.3958 39.8957 43.0208 44.2707 35.4167 44.2707ZM14.5833 8.854C8.62501 8.854 5.72917 11.7498 5.72917 17.7082V32.2915C5.72917 38.2498 8.62501 41.1457 14.5833 41.1457H35.4167C41.375 41.1457 44.2708 38.2498 44.2708 32.2915V17.7082C44.2708 11.7498 41.375 8.854 35.4167 8.854H14.5833Z" fill="#C0C0C0"/>
<path d="M24.9995 26.8124C23.2495 26.8124 21.4787 26.2708 20.1245 25.1666L13.6037 19.9583C12.937 19.4166 12.812 18.4374 13.3537 17.7708C13.8954 17.1041 14.8745 16.9791 15.5412 17.5208L22.062 22.7291C23.6454 23.9999 26.3329 23.9999 27.9162 22.7291L34.437 17.5208C35.1037 16.9791 36.1037 17.0833 36.6245 17.7708C37.1662 18.4374 37.062 19.4374 36.3745 19.9583L29.8537 25.1666C28.5204 26.2708 26.7495 26.8124 24.9995 26.8124Z" fill="#C0C0C0"/>
</svg>
