<svg width="50" height="50" viewBox="0 0 50 50" fill="none" xmlns="http://www.w3.org/2000/svg">
<path d="M36.3542 47.3957C34 47.3957 31.5208 46.8332 28.9583 45.7498C26.4583 44.6873 23.9375 43.229 21.4792 41.4582C19.0417 39.6665 16.6875 37.6665 14.4583 35.479C12.25 33.2498 10.25 30.8957 8.47917 28.479C6.68751 25.979 5.25 23.479 4.22917 21.0623C3.14584 18.479 2.60417 15.979 2.60417 13.6248C2.60417 11.9998 2.89584 10.4582 3.45834 9.02067C4.04167 7.5415 4.97917 6.1665 6.25 4.979C7.85417 3.39567 9.68751 2.604 11.6458 2.604C12.4583 2.604 13.2917 2.7915 14 3.12484C14.8125 3.49984 15.5 4.06234 16 4.81234L20.8333 11.6248C21.2708 12.229 21.6042 12.8123 21.8333 13.3957C22.1042 14.0207 22.25 14.6457 22.25 15.2498C22.25 16.0415 22.0208 16.8123 21.5833 17.5415C21.2708 18.104 20.7917 18.7082 20.1875 19.3123L18.7708 20.7915C18.7917 20.854 18.8125 20.8957 18.8333 20.9373C19.0833 21.3748 19.5833 22.1248 20.5417 23.2498C21.5625 24.4165 22.5208 25.479 23.4792 26.4582C24.7083 27.6665 25.7292 28.6248 26.6875 29.4165C27.875 30.4165 28.6458 30.9165 29.1042 31.1457L29.0625 31.2498L30.5833 29.7498C31.2292 29.104 31.8542 28.6248 32.4583 28.3123C33.6042 27.604 35.0625 27.479 36.5208 28.0832C37.0625 28.3123 37.6458 28.6248 38.2708 29.0623L45.1875 33.979C45.9583 34.4998 46.5208 35.1665 46.8542 35.9582C47.1667 36.7498 47.3125 37.479 47.3125 38.2082C47.3125 39.2082 47.0833 40.2082 46.6458 41.1457C46.2083 42.0832 45.6667 42.8957 44.9792 43.6457C43.7917 44.9582 42.5 45.8957 41 46.4998C39.5625 47.0832 38 47.3957 36.3542 47.3957ZM11.6458 5.729C10.5 5.729 9.4375 6.229 8.41667 7.229C7.45834 8.12484 6.79167 9.104 6.375 10.1665C5.9375 11.2498 5.72917 12.3957 5.72917 13.6248C5.72917 15.5623 6.18751 17.6665 7.10417 19.8332C8.04167 22.0415 9.35417 24.3332 11.0208 26.6248C12.6875 28.9165 14.5833 31.1457 16.6667 33.2498C18.75 35.3123 21 37.229 23.3125 38.9165C25.5625 40.5623 27.875 41.8957 30.1667 42.854C33.7292 44.3748 37.0625 44.729 39.8125 43.5832C40.875 43.1457 41.8125 42.479 42.6667 41.5207C43.1458 40.9998 43.5208 40.4373 43.8333 39.7707C44.0833 39.2498 44.2083 38.7082 44.2083 38.1665C44.2083 37.8332 44.1458 37.4998 43.9792 37.1248C43.9167 36.9998 43.7917 36.7707 43.3958 36.4998L36.4792 31.5832C36.0625 31.2915 35.6875 31.0832 35.3333 30.9373C34.875 30.7498 34.6875 30.5623 33.9792 30.9998C33.5625 31.2082 33.1875 31.5207 32.7708 31.9373L31.1875 33.4998C30.375 34.2915 29.125 34.479 28.1667 34.1248L27.6042 33.8748C26.75 33.4165 25.75 32.7082 24.6458 31.7707C23.6458 30.9165 22.5625 29.9165 21.25 28.6248C20.2292 27.5832 19.2083 26.479 18.1458 25.2498C17.1667 24.104 16.4583 23.1248 16.0208 22.3123L15.7708 21.6873C15.6458 21.2082 15.6042 20.9373 15.6042 20.6457C15.6042 19.8957 15.875 19.229 16.3958 18.7082L17.9583 17.0832C18.375 16.6665 18.6875 16.2707 18.8958 15.9165C19.0625 15.6457 19.125 15.4165 19.125 15.2082C19.125 15.0415 19.0625 14.7915 18.9583 14.5415C18.8125 14.2082 18.5833 13.8332 18.2917 13.4373L13.4583 6.604C13.25 6.31234 13 6.104 12.6875 5.95817C12.3542 5.81234 12 5.729 11.6458 5.729ZM29.0625 31.2707L28.7292 32.6873L29.2917 31.229C29.1875 31.2082 29.1042 31.229 29.0625 31.2707Z" fill="#CCCCCC"/>
</svg>
