<svg width="50" height="50" viewBox="0 0 50 50" fill="none" xmlns="http://www.w3.org/2000/svg">
<path d="M25 29.5207C20.5625 29.5207 16.9375 25.9165 16.9375 21.4582C16.9375 16.9998 20.5625 13.4165 25 13.4165C29.4375 13.4165 33.0625 17.0207 33.0625 21.479C33.0625 25.9373 29.4375 29.5207 25 29.5207ZM25 16.5415C22.2917 16.5415 20.0625 18.7498 20.0625 21.479C20.0625 24.2082 22.2708 26.4165 25 26.4165C27.7292 26.4165 29.9375 24.2082 29.9375 21.479C29.9375 18.7498 27.7083 16.5415 25 16.5415Z" fill="#C0C0C0"/>
<path d="M25 47.4165C21.9167 47.4165 18.8125 46.2498 16.3958 43.9373C10.25 38.0207 3.45833 28.5832 6.02083 17.354C8.33333 7.1665 17.2292 2.604 25 2.604C25 2.604 25 2.604 25.0208 2.604C32.7917 2.604 41.6875 7.1665 44 17.3748C46.5417 28.604 39.75 38.0207 33.6042 43.9373C31.1875 46.2498 28.0833 47.4165 25 47.4165ZM25 5.729C18.9375 5.729 11.1458 8.95817 9.08333 18.0415C6.83333 27.854 13 36.3123 18.5833 41.6665C22.1875 45.1457 27.8333 45.1457 31.4375 41.6665C37 36.3123 43.1667 27.854 40.9583 18.0415C38.875 8.95817 31.0625 5.729 25 5.729Z" fill="#C0C0C0"/>
</svg>
