<svg width="192" height="34" viewBox="0 0 192 34" fill="none" xmlns="http://www.w3.org/2000/svg">
<path d="M184.445 33.5637C184.05 33.5637 183.656 33.4357 183.317 33.1809L175.349 27.1609L167.381 33.1809C167.051 33.4311 166.654 33.565 166.247 33.5635C165.841 33.562 165.445 33.4252 165.116 33.1726C164.788 32.9215 164.542 32.5675 164.416 32.161C164.289 31.7546 164.287 31.3163 164.41 30.9087L167.382 20.8045L159.485 14.9424C159.158 14.688 158.915 14.3316 158.791 13.9237C158.666 13.5157 158.667 13.0769 158.792 12.6692C158.918 12.2625 159.162 11.908 159.49 11.6556C159.818 11.4032 160.213 11.2658 160.62 11.2628L170.4 11.2473L173.513 1.3939C173.642 0.987986 173.888 0.634948 174.218 0.384781C174.547 0.134615 174.943 0 175.349 0C175.756 0 176.151 0.134615 176.481 0.384781C176.811 0.634948 177.057 0.987986 177.185 1.3939L180.246 11.2473L190.076 11.2628C190.483 11.2652 190.879 11.4025 191.207 11.6553C191.535 11.908 191.78 12.2634 191.905 12.6708C192.031 13.0782 192.032 13.5169 191.907 13.9247C191.783 14.3325 191.539 14.6886 191.212 14.9424L183.315 20.8045L186.287 30.9087C186.41 31.3162 186.409 31.7544 186.282 32.1609C186.155 32.5674 185.91 32.9214 185.582 33.1726C185.252 33.4272 184.854 33.5642 184.445 33.5637V33.5637Z" fill="#FFAC33"/>
<path d="M144.748 33.5637C144.352 33.5637 143.958 33.4357 143.62 33.1809L135.651 27.1609L127.683 33.1809C127.353 33.4311 126.956 33.565 126.55 33.5635C126.143 33.562 125.747 33.4252 125.419 33.1726C125.09 32.9215 124.845 32.5675 124.718 32.161C124.591 31.7546 124.589 31.3163 124.713 30.9087L127.684 20.8045L119.788 14.9424C119.461 14.688 119.217 14.3316 119.093 13.9237C118.969 13.5157 118.969 13.0769 119.094 12.6692C119.221 12.2625 119.465 11.908 119.793 11.6556C120.121 11.4032 120.516 11.2658 120.922 11.2628L130.702 11.2473L133.816 1.3939C133.944 0.987986 134.191 0.634948 134.52 0.384781C134.85 0.134615 135.246 0 135.652 0C136.058 0 136.454 0.134615 136.783 0.384781C137.113 0.634948 137.359 0.987986 137.488 1.3939L140.549 11.2473L150.379 11.2628C150.786 11.2652 151.181 11.4025 151.509 11.6553C151.838 11.908 152.082 12.2634 152.208 12.6708C152.333 13.0782 152.334 13.5169 152.21 13.9247C152.085 14.3325 151.842 14.6886 151.514 14.9424L143.618 20.8045L146.589 30.9087C146.713 31.3162 146.711 31.7544 146.585 32.1609C146.458 32.5674 146.213 32.9214 145.884 33.1726C145.555 33.4272 145.157 33.5642 144.748 33.5637V33.5637Z" fill="#FFAC33"/>
<path d="M105.097 33.5637C104.701 33.5637 104.307 33.4357 103.968 33.1809L96.0002 27.1609L88.0321 33.1809C87.702 33.4311 87.3053 33.565 86.8986 33.5635C86.4919 33.562 86.096 33.4252 85.7676 33.1726C85.4388 32.9215 85.1935 32.5675 85.0667 32.161C84.94 31.7546 84.9381 31.3163 85.0614 30.9087L88.0331 20.8045L80.1365 14.9424C79.8093 14.688 79.5662 14.3316 79.4418 13.9237C79.3173 13.5157 79.3178 13.0769 79.443 12.6692C79.5693 12.2625 79.8137 11.908 80.1417 11.6556C80.4697 11.4032 80.8646 11.2658 81.2708 11.2628L91.0509 11.2473L94.1647 1.3939C94.2932 0.987986 94.5396 0.634948 94.8691 0.384781C95.1987 0.134615 95.5945 0 96.0007 0C96.4069 0 96.8027 0.134615 97.1323 0.384781C97.4618 0.634948 97.7082 0.987986 97.8367 1.3939L100.898 11.2473L110.728 11.2628C111.134 11.2652 111.53 11.4025 111.858 11.6553C112.186 11.908 112.431 12.2634 112.557 12.6708C112.682 13.0782 112.683 13.5169 112.558 13.9247C112.434 14.3325 112.19 14.6886 111.863 14.9424L103.966 20.8045L106.938 30.9087C107.062 31.3162 107.06 31.7544 106.933 32.1609C106.807 32.5674 106.562 32.9214 106.233 33.1726C105.903 33.4272 105.505 33.5642 105.097 33.5637V33.5637Z" fill="#FFAC33"/>
<path d="M65.5722 33.5637C65.1765 33.5637 64.7827 33.4357 64.4438 33.1809L56.4758 27.1609L48.5077 33.1809C48.1775 33.4311 47.7808 33.565 47.3741 33.5635C46.9674 33.562 46.5716 33.4252 46.2431 33.1726C45.9143 32.9215 45.6691 32.5675 45.5423 32.161C45.4155 31.7546 45.4136 31.3163 45.5369 30.9087L48.5087 20.8045L40.6121 14.9424C40.2848 14.688 40.0418 14.3316 39.9173 13.9237C39.7929 13.5157 39.7933 13.0769 39.9186 12.6692C40.0449 12.2625 40.2893 11.908 40.6172 11.6556C40.9452 11.4032 41.3402 11.2658 41.7463 11.2628L51.5264 11.2473L54.6402 1.3939C54.7687 0.987986 55.0152 0.634948 55.3447 0.384781C55.6742 0.134615 56.0701 0 56.4762 0C56.8824 0 57.2783 0.134615 57.6078 0.384781C57.9373 0.634948 58.1838 0.987986 58.3123 1.3939L61.3732 11.2473L71.2032 11.2628C71.6099 11.2652 72.0054 11.4025 72.3337 11.6553C72.662 11.908 72.9064 12.2634 73.0321 12.6708C73.1578 13.0782 73.1584 13.5169 73.0339 13.9247C72.9094 14.3325 72.666 14.6886 72.3385 14.9424L64.4419 20.8045L67.4136 30.9087C67.5372 31.3162 67.5355 31.7544 67.4089 32.1609C67.2823 32.5674 67.0371 32.9214 66.7084 33.1726C66.3789 33.4272 65.9808 33.5642 65.5722 33.5637V33.5637Z" fill="#FFAC33"/>
<path d="M25.7479 33.5637C25.3522 33.5637 24.9584 33.4357 24.6195 33.1809L16.6514 27.1609L8.68336 33.1809C8.35323 33.4311 7.9565 33.565 7.54981 33.5635C7.14313 33.562 6.74728 33.4252 6.4188 33.1726C6.09002 32.9215 5.84478 32.5675 5.71799 32.161C5.5912 31.7546 5.58932 31.3163 5.7126 30.9087L8.68434 20.8045L0.787764 14.9424C0.460501 14.688 0.217456 14.3316 0.0930084 13.9237C-0.0314393 13.5157 -0.0309908 13.0769 0.0942908 12.6692C0.220561 12.2625 0.464952 11.908 0.792925 11.6556C1.1209 11.4032 1.51586 11.2658 1.922 11.2628L11.7021 11.2473L14.8159 1.3939C14.9444 0.987986 15.1909 0.634948 15.5204 0.384781C15.8499 0.134615 16.2458 0 16.6519 0C17.0581 0 17.454 0.134615 17.7835 0.384781C18.113 0.634948 18.3595 0.987986 18.488 1.3939L21.5489 11.2473L31.3789 11.2628C31.7856 11.2652 32.1811 11.4025 32.5094 11.6553C32.8377 11.908 33.0821 12.2634 33.2078 12.6708C33.3334 13.0782 33.3341 13.5169 33.2096 13.9247C33.0851 14.3325 32.8417 14.6886 32.5142 14.9424L24.6176 20.8045L27.5893 30.9087C27.7129 31.3162 27.7112 31.7544 27.5846 32.1609C27.458 32.5674 27.2128 32.9214 26.8841 33.1726C26.5546 33.4272 26.1565 33.5642 25.7479 33.5637Z" fill="#FFAC33"/>
</svg>
